<?xml version="1.0" standalone="no"?>
<!DOCTYPE svg PUBLIC "-//W3C//DTD SVG 20010904//EN"
 "http://www.w3.org/TR/2001/REC-SVG-20010904/DTD/svg10.dtd">
<svg version="1.0" xmlns="http://www.w3.org/2000/svg"
 width="500.000000pt" height="281.000000pt" viewBox="0 0 500.000000 281.000000"
 preserveAspectRatio="xMidYMid meet">

<g transform="translate(0.000000,281.000000) scale(0.100000,-0.100000)"
fill="#ffffff" stroke="none">
<path d="M2389 2739 c-478 -40 -805 -299 -959 -757 -59 -176 -75 -299 -75
-577 0 -196 4 -271 18 -345 89 -477 317 -781 689 -920 159 -59 380 -85 584
-69 298 24 512 121 691 313 131 141 192 282 201 467 6 130 -13 229 -65 339
-28 59 -54 93 -122 160 -49 49 -113 100 -149 120 -34 19 -69 40 -78 45 -9 7
-19 39 -25 85 -31 223 -143 394 -309 468 -170 75 -398 67 -563 -20 -63 -34
-187 -147 -187 -171 0 -7 41 -41 91 -76 l90 -63 37 40 c20 22 62 52 92 68 52
27 62 29 175 29 101 0 127 -3 165 -21 81 -37 138 -112 166 -217 l12 -47 -66 7
c-116 14 -310 8 -395 -11 -330 -74 -491 -359 -357 -632 93 -190 352 -292 605
-239 212 45 359 198 420 437 12 51 28 94 34 96 6 2 42 -27 80 -65 78 -78 109
-145 118 -255 13 -153 -39 -282 -162 -404 -124 -123 -267 -189 -469 -214 -224
-28 -430 3 -614 91 -251 121 -398 349 -464 719 -17 100 -17 470 0 570 49 277
133 453 286 598 161 153 420 234 696 219 402 -23 674 -206 806 -545 19 -47 34
-91 34 -98 0 -7 4 -15 8 -18 10 -6 203 43 216 55 5 5 0 36 -13 75 -97 296
-305 541 -556 655 -199 90 -446 129 -686 108z m406 -1380 c87 -13 86 -11 61
-130 -27 -124 -85 -212 -170 -257 -47 -25 -60 -27 -166 -27 -102 0 -120 3
-160 24 -90 47 -123 95 -122 180 1 139 137 218 379 220 56 1 136 -4 178 -10z"/>
</g>
</svg>
